<svg xmlns="http://www.w3.org/2000/svg" xmlns:xlink="http://www.w3.org/1999/xlink" version="1.1" id="Layer_1" x="0px" y="0px" width="100px" height="100px" viewBox="0 0 100 100" enable-background="new 0 0 100 100" xml:space="preserve">
<path d="M13.289,20.993c-1.41,1.412-1.41,3.706,0.001,5.118c1.411,1.412,3.706,1.412,5.117,0c1.412-1.41,1.412-3.706,0-5.118  C16.996,19.584,14.699,19.584,13.289,20.993z" fill="#C4DFFB"/>
<g>
	<polygon points="49.765,7.705 42.49,7.705 92.727,57.941 61.279,89.393 64.914,93.027 100,57.941  " fill="#C4DFFB"/>
</g>
<path d="M35.084,7.705H10.527L0,18.234v24.557l50.235,50.236l35.084-35.086L35.084,7.705z M50.234,85.756L5.143,40.662L5.144,20.36  l7.512-7.512h20.297l45.092,45.093L50.234,85.756z" fill="#C4DFFB"/>
</svg>